# xmcd
#
# Track frame offsets:
#	180
#	14940
#	28417
#	43952
#	56802
#	70300
#	83207
#	97707
#	113767
#
# Disc length: 1732 seconds
#
# Revision: 1
# Processed by: cddbd v1.5.2PL0 Copyright (c) Steve Scherf et al.
# Submitted via: audiograbber 1.83.01
#
DISCID=7e06c209
DTITLE=Various Artist - Rockin' Country
DYEAR=1900
DGENRE=Oldies
TTITLE0=Diamond Rio - Meet In The Middle
TTITLE1=Brooks and Dunn - Brand New Man
TTITLE2=Exile - Even Now
TTITLE3=Kentucky Headhunters - Dumas Walker
TTITLE4=Shenandoah - The Church On Cumberland Road
TTITLE5=Waylon Jennings - The Eagle
TTITLE6=Several - Silver Stallion
TTITLE7=Highway 101 - I Can't Love You Baby
TTITLE8=Southern Pacific - Reckless Heart
EXTD=
EXTT0=
EXTT1=
EXTT2=
EXTT3=
EXTT4=
EXTT5=
EXTT6=
EXTT7=
EXTT8=
PLAYORDER=
